/* XPM */
static char * C:\Users\JANI\Downloads\Textures\bloom64_xpm[] = {
"64 64 91 1",
" 	c #00208B",
".	c #0D3B04",
"+	c #0C4100",
"@	c #154C00",
"#	c #225200",
"$	c #0D5900",
"%	c #36492B",
"&	c #1C5500",
"*	c #146701",
"=	c #5C4B4F",
"-	c #276402",
";	c #525247",
">	c #3D5B2E",
",	c #0C7400",
"'	c #2C7207",
")	c #466D34",
"!	c #2C7A03",
"~	c #108301",
"{	c #7D616A",
"]	c #2C830B",
"^	c #099001",
"/	c #1A8B00",
"(	c #9A6185",
"_	c #2A8D19",
":	c #1A9500",
"<	c #398C06",
"[	c #747261",
"}	c #269208",
"|	c #319007",
"1	c #389400",
"2	c #3D8F2B",
"3	c #4B8B39",
"4	c #AE6598",
"5	c #289C01",
"6	c #369C05",
"7	c #50912B",
"8	c #3E9A08",
"9	c #62894F",
"0	c #768464",
"a	c #C667B0",
"b	c #BF6BA8",
"c	c #74895A",
"d	c #A37C8D",
"e	c #3AA80A",
"f	c #43A607",
"g	c #8C8875",
"h	c #4BA51C",
"i	c #52A227",
"j	c #9A8582",
"k	c #B47F9C",
"l	c #64A03E",
"m	c #BE7CA5",
"n	c #A6868B",
"o	c #939065",
"p	c #769B53",
"q	c #C67BAD",
"r	c #D874C0",
"s	c #A28C7A",
"t	c #879667",
"u	c #949272",
"v	c #D479B8",
"w	c #EC70D1",
"x	c #B28894",
"y	c #E773D0",
"z	c #E375C8",
"A	c #E973CB",
"B	c #BF8697",
"C	c #EE76C8",
"D	c #EA7CC2",
"E	c #D885A4",
"F	c #98A059",
"G	c #C19085",
"H	c #E481B8",
"I	c #E985B6",
"J	c #8BAF48",
"K	c #EB8BAD",
"L	c #DA9595",
"M	c #BBA471",
"N	c #ED93A2",
"O	c #92C502",
"P	c #C3B459",
"Q	c #E8A588",
"R	c #BFC04D",
"S	c #E5BD6D",
"T	c #BFD02D",
"U	c #F2BB78",
"V	c #E3CE4D",
"W	c #D9D538",
"X	c #F4E139",
"Y	c #E5EA15",
"Z	c #F7FC00",
"!/1ff8feeef<-fef86'<fffff'&&&&#&#########]~/^^@.+|ff66f!&&&&@@&+",
"$//}<-feeee'&1ffff8!fefff<&&&&#@@@*|!-###]}~^]+.@'f6//~&@&&&,~/~",
"~~]]]]:::5ig(uhffff6fffef|&&&@+..@~}f<#@#'f}/$@'!-]}~/,++@+@///^",
"/~*/^:^__2qwwyjeffeee!-'<!&&#+..+,/66**,-&<f|!}ef8']//&.&~~**/^^",
"^^@,^60qk0wwwwxffepmnd)]]&&&+.(4%*^:/,^^61<|8ffeff1|^/,+@~//~/^/",
"//$']uAwzgzywvplffnwwwsf1&&&@%ryrk_^/^:eeefffefee5}|^^^,+@]6}/~~",
"/^]]>vyAAsqDvdvvlftrvrtf]&#@+%{ryq_///eeeee<fe:^^^,*^^,/$.,6//~/",
"~^,*=yyDNSRBjywyufuwrti8&#@+..;yr3//^}feee6<ee^^^^^/^~~^/*/}////",
"~/**-vwDQZYJrywwn|pqkl1'-'&+-,,09^/^^:65e6'}:^^^^^^^^]^^^/~*~//~",
"/,,//cggFTOJxrwyt-!ff6]6ff'*/}/~~^^^^//^|189g2::^^^^^^^^^^]@,,&+",
"*+&/2kqvHGjvmuxt7&&-'<feff]]<66!<6f6////$62rCkg0^^^^^//^^^^/^,..",
"...*gwwyysqywvief8]!1feeffff8--#-'<1/^^**:3DKIHk^^^^^//~~/^//$..",
"..*^cywwycrwwApfeeeffffeffff]-!]!#!5///~^^pQVSCr2^^^~^^*@~//~+++",
"aak32vywrcAywrleeeefffffef<'<6ff1'8f///^^_BUZVIq2^^^^^^/~^3gd)~]",
"wwwm~)brg2vAmt<1fef6ffffee68f68}}/6f}^^^^cCNSLB7^^^^^^^^/9rwwrc}",
"wwwk,+..$,7phe!!fffffffe5:^^//^^^/1}^^^^^3mkKCv_^^^^^^^^^jwwwwk_",
"wwz9{;..+&8fff!'feeefff:^^^^//^^^^],//^^^^^2mvd^^^^^^^_0g0Awwzc9",
"AAdbwa%@##<fff'-feeffffe/^^,&$//^^~///^^^^^^^_/^^^^^^^gwwndAyjdz",
"Ddqwww{###-6|-&&|eeffe1://^$@*///^/^^^^^^^/^^^}^^^^^^_myyrFKBswy",
"MMDwww4###-!#&&&'fef5^~_07|&'}/,//^^^/,*/^^^^^^^^^^^^2ryCIMRTLCw",
"ZUAwwwn<]1f8'&&&&!ee^~jqyj'*~~];[0_~$[[2^^^^^^^^^^^^^_mwANXZYLAw",
"YRuvymlfff6ff'&#&&16^]mAzv[^/^[ryAd2dzyvc^^^^^^^^^^^5e7xmGVZZVHw",
"LHEtchffff6ff8&###-888lgrr0^^czywwr{Awwwz0^^^^^^^^]6fff9mENWSMtj",
"Dwyrlfffff8fff-####!ff8[z9/^/dwyAAm(yywwyj^^^^::5]&!-!84wwDMKACn",
"Awywuffeffffff-#####!'&.;_^^_3kzDHQPNHwyr9^^^:eee]#@&!ivwwwdCwwr",
"wwwwufeefffff8!-#####@+.*^~cqqknoVXZVLkg9c2^5e:::,++*6fgywA(wwya",
"wwymlffffffffff6<-###@..*~]kwwwCQXZZYFjkrzv3}:^^^,]*^^58{bk[wwy{",
"qrjifff6ffffffffff]-#+..&~_mwwwCLYZZZUCwywwj/^^^^^^/^/}6!1f7ba{#",
"hlfff8!-]'<ffffffff6!+..+~^0ywyAETXXRPDwyywn^^^^^/~~//^efee8&#&&",
"fffff|###&1fffffffff}0(;.*/]dywA[sQQHgxwwww0^^^^^/*,^^^/^^^/@@#&",
"ffffff!##-8ffffffff:_mwa=+,/~jb4(zDDyr9qwyk2^^^^^^~/^^^^^^^^,@&|",
"fffffe1&-8fffffffff^2dyy4.+*jzywyyywwyn9kn2^^^^^^^^^,&*^/^^^^&'f",
"ffeeeef-1fffffffff6_qrzq9$.(ywyyrywwywj^^^^^^^^^^^^^,.*/^^^^^*|f",
"ffeeee6<ffefffffffe_jgvk}8-(ywAD{zywwr3^^^^^^^^~^^^^,+$^^^^/^~6e",
"efeeee68ffeeeffffff-$1i8ff<(zCDNoKCrk9^^,/^}//^^/^^/&.&^^^/^/^66",
"feeeee|'<ffeeeffff1&&!fffh0{0sSXYMjkqv3}|6ee^^^^~**$+.,^^^/^/,!-",
"feeeef'&&-]6eeeeef'&#&-<ftyyrBPZZWHwww0]'!ee^~,$++$,,*^/^^/^,@&!",
"feeef8[4bk0*<eeef]&&&&#&'dwwyDLWXRNAwy0&#'fe^^,*$]/~/^^//^^~&@-|",
"feeef6xyrzrg31ff<&###&&<fdwwwvtLNBjAwa>#&|e5^^^^^^^~/^^^}:/$,@&/",
"ffeefhmwwwyzpff1-#####'f59zwygmDDA0(4=,,1ee5:^^^^^^}266fff~]^/*,",
"e5eeelrwwyxppskti'##&'6f:^0mjgyyyw0&.+~^:5^^^55eeffpvnfff6,^^^^*",
"^^::etwwwwvlvywym7--<fff}^^^^gwwwr3$.&^^^^^^^eeeeffozr0ff],^^^^,",
"^^^:e2vwwyzpvwwwyx<8ffff}^^^^_ddn9^/,,^^^^^^^5e5::}ovyrif}//^^2m",
":5:^^_vwyAAuLCCywvifffff}^^^^^}9pnj_^/3_3cqd2^^^^/^gwvshf}^^^_qw",
"~55^^}kywCKMVQHzkpfeffff:^^^:5lrrrq'~grqvzww0^^:^*~_glfff:^^^9yw",
"/^}:^^2gnnQXZVsonqklffff5^5eeeimzr3^/nAAHDCr3^^^^/^^:ffff5^^^jww",
"~^^^^^9kkGMWZYMzywwmhffffffeeelzyzj^^3qESQAqj}^^^^^^^ffff!/^^0yw",
"~/^,~_qwwAILTJGzwwwzlffefffeeeixqyk}^dADQNDym_^^^/^^:efff<}^^_qv",
"/^^~~_qwwwCBMvskywwApfffffeeeeee_02^^cAAqvAn_^^^:5565efeeef6:^_9",
"/}//~/9zwwAuEyymxrwqiff!'|feeeee^^^^^2jn330_^^^^:fff::eeff6fe5gr",
"/8}//~_gqmtjywwyjpulff!'8feeeeee:^^^^}e:/^^/^^^^5efe^/^5i3hljkry",
"/81}/~^^}^6uywwykfffff<ffffeeeeee^^^^5ff/^/^/^^^:f55^]>mvrlkwwww",
",/~}//^^^^6ixqq(-fffffffffffeeeee5^^:eef5^^^^^^^5:^^~%awwwuvwwww",
"~^/~//^^/^6ff8-#&8ffffffffffeeefee5:eeee5:^^^^^:e^^^^nyywwsqywyk",
"/^/~/]_^^^^:f<###<fffffffffffeeeeeeefe55e:^^^^:6f^^^^nwyAAsBDvxs",
"/^/3dqd3/_^^1'##&8fffffffff<'!ffeeeffe:^^^^/^^55e5^:^cqzDNRWMnzw",
"^,>bywwk9q9^~&#&<ffffffffff8'#'8f86fee5^/^^^/^^:e55e7g0goJYZSCww",
"/]4wwwwkkwr0~!&&8ffffffffffff''<8&&-<55i9gj2/^^^::5}kywyDGTXPEwy",
"/_dyyyyxkwyz96'-<feefffffffefffff-&&*/_qzwwm$*3^:5:_qwwwzuLNH{vr",
"30cdvvHLsHCzkff<<feeeffffff55556f<##&}cyADAq;ark3~1}qwwwqgDDAq2i",
"myyzmMRTYPs0cofffffeeeff6^:}:^^}e1&#&-tDIQKobwww(#|69rwygqyywv71",
"rwwyCQXZZTkvzzlfffeeee55^^^^e5^^^6-{ba{EUYPoAwwwv21ff3j02rwwwxff",
"qwwwDNYZYTLAwwxffeeee5^^^^:55^^^^}>rwwrsVZYEyywwv]^8/^^^^0vxgiff",
"tzwwDGVXVMMzwwriffeeee:^^^^5^^^^^/;ywwAHPZYGrywy(*}5^^~^^^6eff8f"};
