/* XPM */
static char * C:\Users\JANI\Downloads\Textures\flight64_xpm[] = {
"64 64 91 1",
" 	c #0B0503",
".	c #150808",
"+	c #1E0C0D",
"@	c #1B110D",
"#	c #2A1013",
"$	c #28150F",
"%	c #35111B",
"&	c #311614",
"*	c #00208B",
"=	c #2F1D17",
"-	c #411A1E",
";	c #45191F",
">	c #3F1F1B",
",	c #3D261D",
"'	c #561F2E",
")	c #582128",
"!	c #5B1F40",
"~	c #4B2823",
"{	c #522725",
"]	c #642043",
"^	c #462D23",
"/	c #692341",
"(	c #6C2644",
"_	c #662B2D",
":	c #5E2F29",
"<	c #732647",
"[	c #712838",
"}	c #72283D",
"|	c #772945",
"1	c #7B2C48",
"2	c #5C392D",
"3	c #7E2E45",
"4	c #7B3039",
"5	c #862F49",
"6	c #783835",
"7	c #873341",
"8	c #8A3348",
"9	c #873A39",
"0	c #8F364B",
"a	c #8D3840",
"b	c #694736",
"c	c #744437",
"d	c #933949",
"e	c #99374B",
"f	c #84423C",
"g	c #933E40",
"h	c #9D3C4F",
"i	c #A23F4D",
"j	c #A3444A",
"k	c #AC4152",
"l	c #A74351",
"m	c #904C41",
"n	c #AE4454",
"o	c #855342",
"p	c #B24752",
"q	c #B84B56",
"r	c #A9514C",
"s	c #BA4D52",
"t	c #9F594C",
"u	c #C05257",
"v	c #93624C",
"w	c #C6575B",
"x	c #C05B55",
"y	c #B95E53",
"z	c #CA5A59",
"A	c #B06352",
"B	c #D1605E",
"C	c #AE6C56",
"D	c #A87257",
"E	c #D66461",
"F	c #D26762",
"G	c #BE6E5B",
"H	c #C86B5F",
"I	c #D5695E",
"J	c #DB6E63",
"K	c #D37463",
"L	c #DB7566",
"M	c #C37D61",
"N	c #E0796A",
"O	c #D47F68",
"P	c #BF8866",
"Q	c #E07F6D",
"R	c #E4826A",
"S	c #E4886E",
"T	c #DA8E6F",
"U	c #E69072",
"V	c #DA9B74",
"W	c #E89877",
"X	c #E9A07B",
"Y	c #EBA77B",
"Z	c #EBAE7E",
"!!!]]]]]]]]/]]//////////((/</(((////////////]]]]]]]]]!!!!!!!!!!!",
"]]]]]]]]///////(((<<(<(|<|((<<(<<<<((<((((//////]/]]]]]]]!!!!!!!",
"]]]]//////((<((<<<<<<<|<||||||||||<<|<<|<((((<(//////]]]]]]!!!!!",
"]]////<<((<|||<||||||||||||||||||||||||||||<<<<<((</////]]]!]]!!",
"///(<<<<<<|||||||11113111111111111111111|||||||||<<(((/////]]]]]",
"(((<<<<|||||11111333333333333333333333331311111||||<<<|<(////]]]",
"<|||||||11133333553555555555555555555555333333||11||||<<<<((////",
"||||1131333555555555355555555555555555555555}%%}33311|||||<<((//",
"|111333555555555555888888888888888588855555'+.}355331111||||<</%",
"13335555555558888000000000000000000000088}'+ .%'55555333311|||' ",
"55355}}858888000000d00000000ddd00ddd00008'[# #88555555553313'%. ",
"55553%-8800000dd00deddeeeeeeeddeedeeeded00d'..[008885555553333% ",
"5585[#+8000ddddedeeeeeeeeeeeeeeeeeeeeeeededd'+'000008885555353'#",
"8880' +8dddeeeeeeehhhhhhhhihhhihhhhhhhheeeee8%#dddd0000885555533",
"0008# #deeeehhhhhhhiiiiiiiiiiihiiihhihhhhhhhe4)deeded00000855555",
"0dd[+ #7dhhhhhhiiiiiiiillllllllliiiiiiiiihhhhhhhheeeeed008''}855",
"eed)... ;diiiiiiillkllllllllllllllllllllliiiiihhhhhhded8)+ %'888",
"ed%;#    [iiilllllllllkkkklllllnkkllllllllllliiiiihhhh'++  [d000",
"ehdhd)% .7kllllllllnppppppppppppppppppnllllllkllliiihh[7[+ )ddd0",
"hiiiil4##)_annpppppppppppppppppppppppppppppnklkllllliiiid)++8eed",
"iiilia;+.)ajpppppppppppqqqqqqqpaajpppppppppppppnkllllliiid;+[hee",
"lklli)a4_jpppppppqqqqqqqqqsja4;---gqqqqqqppppppppppnllllli7-[hhe",
"kllnpppjppppqqqqqsssqsssssu94) +;_sssssqj4_pqqppppppnklllli77ihh",
"knnppppppqqqqssqssssuuuuuuuuup-+#juuusj)+#&4jqqqppppppnnkkllliih",
"ppppppqqqqqsssuuuuuuuuuuuuuuuua&#puuu_;;+ #jssqsqqqqpppppnklllli",
"ppppqqsqsssuuuuuuuuuuuuwwwwwuws{-puuusss4#-uuuusqssqqqppppppkkll",
"pqqqqsssuuuuuuuuuwwwwwwwwwwwwww9)swwwwwuj{)uuuuuuusssssqpppppnkl",
"qqqqsuuuuuuuuwwwwwwwzzzzwzzzzzzujzwzzzwwugjwuuuuuuupassqsqpppppn",
"qssuuuuuuwwwwwwwwzzzzzzzzzzzzzzzzzzzzzzzwwwwwwwuuuuj-9sssqqppppp",
"suuuuuuwwwwwwwzwzzzzzzzzzzzzzzzzzzzzzzzzzzzwwwwwwwup-&susqqqqppp",
"uuuuwwwwwwzzzzzzzzzzzzzBBBBBBBBBBBBzzzzfwzzzzzzwwwwp&+guuussqqqp",
"uuuwwwwwzzzzzzzzzBBBBBBBBBBBBBBBBBBBBBz__zzzzzzzzzwr&+9uuuuussqs",
"uwwwzzwzzzzzzBBBBBBBBBBBBBBBBxBBBBBBBBz_#9Bzzzzzzzzs>+6uuuuuuusq",
"wwwwzzzzzzBBBBBBBBBBBBBBBEFB9{FEEBBBBBF_+&xBBzxBzzzr>#&{4wwuuuus",
"zzzzzzzzBBBBBBBBBBEEEFFEEFEr+#xFEFFFEFB_++rx6{grzzf_{_gswzwwuuuu",
"zzzzzBBBBBBBBBFEFEIIEIIIIFF: &xFEIIIIEF_++6&  _rBzszzBzzzzzwwwuu",
"zzzBBBBBBBEEEEFFFIIIIIFIIIx& .{yIFIIIIIf&&&# +rBBBBBBBzzzzzzwwwu",
"zzBBBBBBEEEEEIIIIIIIIJJJI{::  rJJJJJIFx{#${_>+>FEBBBBBBzzzzzzzww",
"BBBBBBBFFEFIIIIJJJJJJJJJJyIy> :JJJJJJffryxIIy{&rEFBBBBBBBBzzzzzz",
"BBBBBEFIrFFIIIJJJJJJJJJLJJLLy~&HJJJJJJJJJJJJJm~fEFEFEBBBBBBzzzzz",
"BBBFFIFImfIJJJJJJJJJJJJLLLLLLHyLLLJLJJJJJJJJJH6{FIIFFBBBBBBBzzzz",
"BFFFFIFIr~fJJJJJLLLLLLLLLLLLLLLLLLLLLLLLLJJJJJr_yIIIFrxEEBBBBBzz",
"EFFIFFJJr~&xLLLLLLLLLLLLNNNNNNNNNNLLLLLLLLLLLJm&mJJIx>6EEEBBBBBz",
"FIIIJJJJy~&yLLLLLLNNNNNNNQNQQQRNNNNNNNNLLLLLLJ6.fJJJr$&FEFFBBBBB",
"IIIJJJJJH~>rLLLNNNNNQQQQQQQQQQQQQQQQQQNNNNLLLH> mJJJr++xIIFEEBBB",
"FJJJJJJLL:>>{ANNNQQQQQQQQQQQQQQRRRQQQQQQQQNNNG$.tLLJm@+yIIFFFEBB",
"JJJJJLLmc~::~fQNQQRRRRRRRRRRRRRRRRRRRRQQRQQKt:.@&:ILr+.6fFIIEFEB",
"JJJLLLLAmKNQKQQQQRRRRRSSSSSSSSSSSRSSRRRRQRQHmA= :LLK6..&yIJFIFEE",
"JJLLLLNNQNQQQQRRRRSSSSSSSSSSSSSSSSSSSSSRRRRQRQc.$Hy~t: +yJJJIFIE",
"JLLLLNNQQQQQRRRSSSSSSSSSSSSSSSSSC2CSSSSSSSSRQRK~.ALKNH~ mJJJJIII",
"LLLNNQQQQRRRSSSSSSSUSSUUUUUUUUUUO2@cUSSSSOSSRRRAtKQNNNGyHLJJJJFI",
"LLNNNQQQQRSSSSSSSSSUUUUUUUUUUUUUUb=cSSSSSoOSSSRRRRQQNNNNLLLJJJJI",
"LNNNQQRRSSOOSSSUUUUUUUUUUUUUUUUUTb,2CGUUUo2OSSSSSRRQQQNNLLLLLJJJ",
"NNQQQRRSCo2tGOUUUUUUUUWUWWWWWWWDo,=$vMUUUo,2SSSSSSRRQQQNNLLLJJJJ",
"KQQQRRSA@==2CUUUUUWWWWWWWWWWWWWD2Mv2TWUUUC=$MUSSSSSRRQQQQNLLLLJJ",
"mAKRRSc~=  cUUUUWWWWWWWWWWWWWXWWTWTMWWWWWT^@oUUSSSSSSRRQQQNLLLLJ",
"@mKSSSCOG2@,UWWWWWWWWWWXXXXXXXXXXWXWWWWWWWb=,c2OUSSSSSRRQQQNLLLL",
">RSSSSSUUC,,TWWWWWXXXXXXXXXXXXXXXXXXXXXWWTb=^2cCUUSSSSSRRQQNNLLL",
">SSSSSUUUM2^TWWXWXXXXXXVDPXXXXXXXXXXXXXXP=@DTWUUUUUSSSSRRQQQNNLL",
">ttSSUUUMoCvWWXXXXXXXYXP@=PPVYYYYYYXYXXXXMDXWWWWUUUUUSSSRRRQNNNL",
",=GSUUUUv,MTWXXXXXYYYYVD@ .vVYYYYYYYYYYXXXXXXWWWWWUUUSSSSSRQQQNL",
"CCOUUUUUv=vXXXXXYYYYYYDvP^ vZZYYYYYYYYYYXXXXXXWWWWUUUUUSSQRRQQNN",
"SSUUUUWWv@bXXXYXYYYYYYZZZP,=PZZZZZZZYYYYYYXXXXXWWWWMCUUSSSSQRQQN",
"SSUUUWWWD=,VXYYYYYYZZZZZZZPbbZZZZZZZZZYYYYYXXXXXWWW22UUUSSSRRRQQ"};
