/* XPM */
static char * C:\Users\JANI\Downloads\Textures\moonlight64_xpm[] = {
"64 64 91 1",
" 	c #000200",
".	c #080100",
"+	c #010400",
"@	c #000407",
"#	c #020501",
"$	c #000509",
"%	c #01070A",
"&	c #08050A",
"*	c #040702",
"=	c #02080C",
"-	c #040A0D",
";	c #050B0E",
">	c #070C0F",
",	c #000F10",
"'	c #080E10",
")	c #001116",
"!	c #070F16",
"~	c #021111",
"{	c #090F11",
"]	c #081017",
"^	c #031212",
"/	c #021217",
"(	c #0B1012",
"_	c #051213",
":	c #061314",
"<	c #031418",
"[	c #051419",
"}	c #06151A",
"|	c #08161B",
"1	c #09171B",
"2	c #04191D",
"3	c #011A21",
"4	c #0A181C",
"5	c #0C181D",
"6	c #031B23",
"7	c #071B1E",
"8	c #091C20",
"9	c #061D25",
"0	c #0B1E22",
"a	c #071F27",
"b	c #082028",
"c	c #022229",
"d	c #062224",
"e	c #0D2024",
"f	c #02232A",
"g	c #092129",
"h	c #0A2129",
"i	c #072326",
"j	c #0D242C",
"k	c #112427",
"l	c #0F262E",
"m	c #122931",
"n	c #253237",
"o	c #23363A",
"p	c #2B383D",
"q	c #344045",
"r	c #39464B",
"s	c #444F4F",
"t	c #48555B",
"u	c #4E595A",
"v	c #5D6869",
"w	c #6E797A",
"x	c #7C8183",
"y	c #84888B",
"z	c #898E90",
"A	c #8D9194",
"B	c #9A9FA1",
"C	c #A1A5A8",
"D	c #A8ACAF",
"E	c #AEB3B5",
"F	c #B4B8BB",
"G	c #BEC2C5",
"H	c #C3C7CA",
"I	c #C7C9C6",
"J	c #CBCFD2",
"K	c #D5DADD",
"L	c #D7DAD6",
"M	c #E0E2DF",
"N	c #E2E7EA",
"O	c #E5E8E4",
"P	c #E8EDEF",
"Q	c #EDF0EC",
"R	c #F1F3F0",
"S	c #F6F8F5",
"T	c #F9FCF8",
"U	c #F8FCFF",
"V	c #FBFDFA",
"W	c #FFFCFA",
"X	c #FCFFFB",
"Y	c #FDFFFC",
"Z	c #FFFFFF",
"cccccchccccccccccccccccccccccccccccccccccccccccccccccccccccccccc",
"cccccchccccccccccccccccccccccccccccccccccccccccccccccccccccccccc",
"cccccbbhccccccccccccccccccccccccjlcccccccccccccccccccccccccccccc",
"ccccc30ccccccccccccccccccccccmvDJJGzrhhccccccccccccccccccccccccc",
"ccccc<2ccccccccccccccccccchcqFRXXVXVMxlccccccccccccccccccccccccc",
"ccch9^4ccccccccccccccccccchpHTXXXXXXXRyjcccccccccccccccccccccccc",
"ccch5>[ccccccccccccccccccdjCTXXXXXXXXXPtjccccccccccccccccccccccc",
"ccce/-1cccccccccccccchhcccrOVWXVXXXXXXVEjcccchcccccccccccccccccc",
"ccch:-/acccccccccccccchcccwTXXXXXXXXXXXKnccchhcccccccccccccchccc",
"chb4>->[hhccccccccccchacccBUXXXXXXXXXXXQqccchaccccccccccccchhccc",
"c7|>-=>9ccccccccccccc08hhdBTXXVTTVXXXXVQqcchc7hchcchhcccccchabcc",
"ca|>->[bhhccccccccccc67hhcwTXXXTTXXXXXTKnccch4h9hccchccccccb23ch",
"h[[>-=>69bcccccccccch7|achqOXXXVVXVXXXVDjcccb[01cchccccccccd<[ac",
"a[-=-=={{bccccccccccb1|0hcjBTVTSRXZXXVNshccca<[/ahcchhccccc0/>7h",
"!>>=%>>>9hcccccccccca<:7acdnGTVQMXXVVQxdcccc1^/>8cchhhccccc8>>4c",
"1_>>==%>0ccccccccchhh|:[9hhhpDQLITVSKwkhhhhb|~>>7hhchhhhhh6_~>/9",
"4>-->>>^[9ccccccccc97<:|7ahhdjuzAGFyohchhhh9~=-~7hhccccchhc|>>~/",
"9:--~^_{4hccccccccca[_^:4bchchh9[hhhccchhcd9_=%-<ahhhcchb99/>>><",
"2^>->>><[9ccccccccc0[_/[|ahhhhh6_achhhhhhhe5>=-->[6hhhccd[~>->>>",
"->>>>-=-~bcccccccch/[:/<39bhhhb4:acha9hhhh9~=@%-~38hhhhhh9>>>=>{",
">>{{>-=->[[7chcchha>[[_[69bcchb[_4dd72dchb7/%@@%-^4bhhhh9|{>>>>>",
">-{{{>==~>{9dhhdha7>>:[<|76bhhh2^:29[|bhhe[>@@@%>>~9dhhd9|://>>>",
">-=>>-=>>[0chhhhh9^%%/[[:[3hhhb2/:68<:[acd4-%@@@-^2bhhhh7>>>>>>>",
"{>=>~>>^1ahhhhhhhh~%@{::[10bhd2/^_[:^^~7d6>-%%@@=/54be:<~>->-~_~",
">>>>:_>[7ahdhhhhhd7%@-^[|699bh|^~^/^:{>~1|-@@*@@=[3!7b7[>>---{{~",
"=%%=>~->>139hhhdb1{@@->[_[[6hh2~~>>_[>><~>=@@%%%==>>/4ea4<>>-/~>",
"-=**>>%>>>>4chhhh[%%*@=>[^26hd~>>>>_[^-:1{-*@%@=%---~7091/<>=~<<",
">=%=-%%-^:19bbbhb|%***-^<[4|ab^->=>_[>=/71~=@%%@%=>>|1>~>>/>*>^>",
"%@@@%@*%[994bhhhb^=***>_[[[/de_=-=>_>>=>/-=@%%=%%@%->|>/<=/>=>^>",
"=*%@@@**-{|/9h0c0>%@@**>~://0a>*=@={>==%=-%@%@@@@@@=---~_%-%%><{",
"*@** ** %(|>9b|[[-*@*%*=-/^~1<-@*@=>>-==->=@%@@  @%%->=->%@%-/:>",
"*@**@   >16-87^4>%@****-~|~^4~****=>-===--%@%%%@@*@==-=>[%@@=~/~",
"%**  *@*@[2*27~77~%*%%*%>>>~1|****@===%%%%@@@@@@@@@%%*=-%  **>->",
"*@** **  >{*>:-|1>-%*%%%@%~^[{%***@@==%@**@@@%@@*@@%%*&%@   %-[1",
"=@ *@@*  @@*><-=-===%**%%@>>[-*@**@***%=@  @@@@@@@@@%**%*   *>44",
"%=%* @  * @@>>==-%%==**%%@>-=*******@@%=%@  @@*@@@@*@**%@  *%-^[",
"@*** *  * @*@-=%%*@%%@**%-~~%******@@@@@*@  @@@@*@%%***@*  @@=~/",
"%**        ***@*%%@%%**%%>-%%***** @@%@   @@ %@@@@@@***    * %[8",
" *       @***@*@@*@%=**%%=%@@******@@*@@@@ @@@@@@@@**..      *^[",
"         @ * ******%@@**@*%=@*******@@@@**    *******         %>",
"             ******%%@* @***@@******@**@@@@@       **      * *=/",
"                **@**@**@@* *** *    @%*           ** *  * * %%[",
"                  .*     *            *            *     ***@%{[",
"         *                                                **  =-",
"                                                          * *@@-",
"    *                  *     *                       *    **@@ %",
"    *                                             *****   *@***%",
"                                                  **  *  ** * *=",
"                                                     ***       @",
"                          **                         *     **  @",
"*                                                    **         ",
"                        *                       *    **    *    ",
"                          *                         ***      *  ",
"                           *                      *****      *  ",
"                           *                      ** **     *   ",
"                         *         *              *  ** *  **   ",
"                                  **                 *    ** *  ",
"                                  ***          **** ***         ",
"                                    *       *     * ***  ** *   ",
"                                                ** ***** **     ",
"                                                **** *****      ",
"                                       *           *  **** **   ",
"                                    *                  *****    ",
"                                                                "};
