/* XPM */
static char * C:\Users\JANI\Downloads\Textures\pollock64_xpm[] = {
"64 64 91 1",
" 	c #00208B",
".	c #BD0A14",
"+	c #B42733",
"@	c #B72824",
"#	c #AB3C3F",
"$	c #9A4A4F",
"%	c #8C5B5C",
"&	c #C45018",
"*	c #A65843",
"=	c #B35A29",
"-	c #816564",
";	c #7B696B",
">	c #747372",
",	c #7A766C",
"'	c #847761",
")	c #6E7F7C",
"!	c #728071",
"~	c #9F7852",
"{	c #C46B72",
"]	c #628C6A",
"^	c #7A856A",
"/	c #CD7312",
"(	c #08B117",
"_	c #4A9952",
":	c #6A905D",
"<	c #AB7F38",
"[	c #5D938A",
"}	c #8E8E5F",
"|	c #2DB404",
"1	c #2CB13B",
"2	c #2DB859",
"3	c #BE888B",
"4	c #979491",
"5	c #9B9A55",
"6	c #5AAC86",
"7	c #29BE74",
"8	c #7EA66D",
"9	c #87A75A",
"0	c #4EB5A6",
"a	c #7FAA87",
"b	c #71AEA4",
"c	c #43BE92",
"d	c #9AA78A",
"e	c #AEA747",
"f	c #35C4B2",
"g	c #97A89F",
"h	c #72B96C",
"i	c #D5A31F",
"j	c #7BBE51",
"k	c #A2B44D",
"l	c #D8A7A9",
"m	c #26DECF",
"n	c #38E4B0",
"o	c #D4C02C",
"p	c #BFBBB9",
"q	c #A2C98A",
"r	c #85D478",
"s	c #8FD45E",
"t	c #83D491",
"u	c #C1C485",
"v	c #4DE89A",
"w	c #35ECCA",
"x	c #B9CABD",
"y	c #82DEB2",
"z	c #74E785",
"A	c #C9D341",
"B	c #9BD6C9",
"C	c #23F9E8",
"D	c #ADD4B1",
"E	c #87EB5F",
"F	c #87EA73",
"G	c #69F475",
"H	c #EDD500",
"I	c #7DE7D8",
"J	c #D7DD2C",
"K	c #79F663",
"L	c #B6E847",
"M	c #CDDE6E",
"N	c #8CF956",
"O	c #DCDBD9",
"P	c #A8F4A3",
"Q	c #B0F67E",
"R	c #C6ECAD",
"S	c #E7EF1B",
"T	c #D2F81E",
"U	c #C4F1CD",
"V	c #B8F6EE",
"W	c #F8FB00",
"X	c #E5F1D2",
"Y	c #E2F6EC",
"Z	c #F7F9F6",
"((((1(1]]0>821ff:)>4[04a>}8S!k[[kWSWJSWi@H/ik^}^b[!}>>%}4ld44>>>",
"((((22(7!0]1^!]b;h[4c[0]!>}~,)>)sWWJJWWW@=HSWW5}e,,e>>>44pp4pO4>",
"_(((1((nf[,>,^8!]9r00k84$r8]]f,~LWW<JLHH.iLvWJ5e5,>>>>>>uXZZO44>",
"](116((nC[]6>][:kTTkwMkj~Fs^hASHHWWk]C}W.iTTWk^>J,>%>4]!5upOp}>>",
"617(11nww)!0]_0]AQWA[!j8)^NE5SJWWWSSWJ,i~wCvS}}$>,h>^>5~4OOOp,>>",
"c17(((7fh>:d)]!LWMA6,72^rj|NkkWSEWWWWWi*yCCCv''-^'8>dREdOZpO4>>^",
"177227wa!>9ekcdSMhg6^Pr!hrh9},AkEWWWWWA]CCCCf,j,'iAuqKFF4OO>44>>",
"(201((76][6>>!xuOxa!8zraqPu}!>dLTWSWWA549mCm8>}>e>>4MQzQ4p44Ib>4",
"_26((166_)[[)Rs_pZg499rqdDz98^8jAWAuQFJu>^]^A>}>,^84589}44pu8d44",
"m2c((1][]))[IZ0pOOKtJzt^AAaS^^zjMWo>AMZXkr5,^AA,>e54>^4>4444dM>u",
"nnw7(:6mf[b7MMBgVma)QzN0uAsLAF26ML|:kMZO->}}JWS^kA}^,A4}Se4444>4",
"nCCw_[0[n:ycLkynu00aQLLF]r^FALG5ywTq}Jd^;>^;ASSh}^>},>>>JW'>[b4p",
"2wwCw[w06>gcUZzwgIbMMQQQrDqkJ:vyLLSA5Ss<^}S}9k^^>e5^5,54ek4>pp4p",
"(2mwf]_gp:uIYZYbxDEM7ImU^!5J96cDMMS}jEKj9JW5sA00}JJ/*^e4%AA>4O44",
"1[0js1(xttLyax26IJJRIICIyVU}]wgu9FssLSKELxS~</^'^}^5--%,jLee,4>e",
"]!08c72w[qLVxg72VybVwnVwItYUPrgF8NTrATKTMJWs)f)<o8!8>'%*EL}k;>%o",
"[[n(wwCCnrzxDBYDYYVBwIYZUVYPIQM(sEKaQSSkXiM~bC['0,,9}e5,eW5},>>;",
"wfw1mvCCwwwCYYYttZZYtyYVGGFvvQQLNNTSy5mb<SAk+!%>q}SS',S59~['},'>",
"2vn(wCCwwCCCYYIqXZZXRrZYzKvvUFQQhKLW}*jgQee~#'-eSdWW^-!6]}[>>}J'",
"vn72CCCCwwnnnyytUUZZZOZUGvCzyGWSFKFLJ->5'e<Wf#^SJ>5}>;[[[5J[;J^>",
"nCn7CCCnv2(wwCYUCVYtODZZvC0EENNAQNvvJ/@;#ieSc4kJ}#'5!>>>-iL0$S5^",
"bcUn2CC2nCwIVIItnItxphXXTteqshqSJTKh^A^}e.Hk^<JeWJe%;+-;%%)6[e,$",
"h]02vm6(vnCCVYVUwI2YZZOAWkhhstPFzt<>]A**/ooM~~<}io5<$[$>>5e^>->[",
"8)cnn0]_22nCYZZYVVVxYXxqQh4rhFKzvE5;9W5yHo{3'',,~*$*%)%,$=JLh>>%",
":c10wf)!Bm00OZZyrY0pDthEwFFrztrNzr^^}}*''<}^;s}e~~~'$->~@.k}%>>#",
"]g]]wm)cyn6VYZZVOZ4pZZU(trGv[hhR6h^%:}<d>%~A&.%,uJWe+@$+&H/#%ee;",
"XZ4gw7!p71tZZZt(wBhDZZRrPQGGf0GPGK99^,,'%+@+/i.#~zi<+.<5ii&%$5<>",
"ZZgfmny6ywrXZZYUy08DZZFy8h8KdhKGNj%^r],$..+><E@xbm5o=@9-;'Sa5oo>",
"twfCCwCCBcDyYtX1t((zXXE18d4zahKGKh],8>Ai..$..@#3$<i3/@<e^SSFWW<-",
"wwCwwvwC16!VYUZrt((zvFKzLFq'D9FLE!8>>)e<=.#...l{H&H'@@oe;A,AWS,>",
"nCCyvCI21y!byYIr((2tyFKzLKs^a,hGE)g5>8}^e#*[$$+<i..@.&#%,kvTWS>,",
"wCCZVmY((11mv7Cn|tBavFUPKPq,g!0Pk!4%dAk8^hc%%>&WWH~/.&i'>MzWWA'>",
"CCCIp):(((qIVZwntgOywPZUEQo*]^fZD,!>]S,>^9%=',eWWWSW.&Se>fJW},%,",
"CCV0VI21((DIVZv(Dgg4XKParNSMag8p8>^![ug>,-g+$-oWWWH/*%,%]w~o;$#-",
"CYVCCCw71(2btUwGx0>xXFD!hyMSjd9uOFE>,hh-;h'#~^SoMWW@<#)%nLe>>))[",
"CwCCCCCf8((_f2(yPrDxUGE54zL9eS,!rPK'xxx^@~+@ERo/WWW=#!,[mSe>)>Cf",
"CCCCCCCfg1(12mfxYOPtPnvvhGA9g55OXFs^-dd-.@++9E=ooHWJ*L}n9}:h>);)",
"wCCCCC7Gr)7U]gZgP%!DyKKhgyYO,XEM>,)4!^8k5.s#@=.%;oWWiA,CTe!))>),",
"CC0mCCww0haZ:)OP![>>yFE8ZPOp-aK8dE[x4PX'..~,%rs%-/WWi,>05))>^>>-",
"wCm[fCCw7((Vab6O4[)xxxhgXE<^h}K^Z4[V0+@'..+'$,$9%./S5j,%-))>>>hh",
"mmf,bn7227]OZp>gVmh>O0vllXR8hhK]!^%g0@@0+=..@s:-%#./:s>>>^^};[!,",
"m00[[BVCc_[,M90CICdxbm,~5DIa8nCbO4,#!+O}==k==E8':%++;;>>%;%-)[>>",
"CCC[>bfb_1]>'[6212xP6)sGd]8;!GwCb4,>h}FP3.j&+$,;44t,>;>%~-%;[>,>",
"CCw6ffC[[>!gb[1(1(1E4bgE8pX!>]CCg;%DK,sR30#..#'[Iah4!K:;'^>;#>>%",
"CCC6[[t>[^02Cf11(((G#4xtvxpI#jaRp;%RF-;-#>;$.<K})udZ>}[>>[[>;>>>",
"CCn2)>^>_(2cwf1(((_jbCm[rrxg{=rwV4lZr!:;{%-$.&5%;zh;++b;%f0)%%;%",
"bmj[[ff>j1sgwh_11q!9r2>)4xD_$3DyxxZlEKrDl#%)$#%!>!%$@$-%%;-))>>#",
">00}qCCfjw)mCc6_!>4b)!][pPj'yE%aOZZ3,~6mfC)$+~za)-;4pCz!-%)>>4>-",
">Af^amCw00[mC[))x>;b]!!gZYd{rXbCZZO*8,>';[$;->[f).#pp)d}^$$pp#;>",
"),][[CfYbv00C)))p-+r[>[xZZDB[lfCBZ)^,hh~@@%;%>>;;#bO#44rs3;>4>O4",
">)mCt[0OO5Icf))>>@-!f[CUYZOCb%)YXh[)]GEj;+>%<Er#,~FpOppl4>3>p>Op",
"4)mCfg[048g_f))!}+)mc[CIVZZb>-!xO8;,:cfh)))%=}8%%@'OZZO%4>4);>;>",
",^)CfO>p4)g4gCb!)$bCc)fmgpZO44Opb[>>w0qh6C0%#}E}sEEgpOp!dp$--%$>",
"5e>bCm4p))_m[Cf!$:m76];)_aZZa$pVCf!!f)j}^-ss^jrqKKdOppprF{@l4$4p",
"m6^!7fI)>>,0nm0[+_n21])!!!da:]^bm_>>mf<^>>9*>hDPKKlZpg-#[4#Op)pp",
"C05>!]wk^^>omf!):7c7|nc8]!_!_!8>-]>hv5*!,_:.%^FKPP*lO03{bg)4^gpp",
"FA}>>)b)!e6[ym):19212wff]h8!k<:));^KKK<j<((5#uKPF}*p4p${%3)444pZ",
"WS,e}[C0^6Cf>_E2__:1][)[Jr]^5--,mm]KKKEK9((c;4rK^-{444$3#{-4p44O",
"AJ>}a]C[}bC0'_Kj_]6c_]][]^^SWJ-*-0rKKKK^>![[6r^}+4344444-4bBBg4O",
"k^>,,k[[}}9[!c_1(206|]_6:!LWTL'->,ErEKN^>>>fCvF$#)>>44-3>4pOBgOO",
"e^5)>,b0}>:1:071((:__fvf::_JWJ[f0>1_GvKh)]]^)9:>>>#;4>;43lOgYOZZ",
"e}!}}}^)}!]1^,2G11(jfm771]]!j1wCf,_]cwGNh^^EEj>>>4>-#>qO#l#pOZZZ",
"A5^5e}9]e^^kAs_]!]_16]_c6_]_1(1:06!-[cKKF8>1K8>>>4)>%>aOl4{4pOZp",
"5J^J}^A8A}^91N]]]1(((_cw21(11(22f7[fCCGKs>>1_],>>>>>)>>-4$#pOOZp"};
